<svg width="237" height="26" viewBox="0 0 237 26" fill="none" xmlns="http://www.w3.org/2000/svg">
<path d="M0 25.5L5.5 0H62.5L60.5 9H66.5L68.5 0H77.5L71.5 25.5H63L65 15.5H59L56.5 25.5H47.5L51.5 6.5H44L39.5 25.5H30L34.5 6.5H14L13 9.5H26L24.5 15.5H12L11 19H24.5L23 25.5H0Z" fill="black"/>
<path d="M92.1651 25.1638H90.2092C89.9953 25.1638 89.9036 25.0721 89.8427 24.8582L87.3061 16.2707H82.7832C82.661 16.2707 82.5693 16.3318 82.5693 16.4541L81.0412 24.8582C81.0105 25.0416 80.8883 25.1638 80.7356 25.1638H78.7798C78.5964 25.1638 78.4742 25.0416 78.5047 24.8582L82.0803 4.68824C82.1107 4.50487 82.2329 4.38263 82.4163 4.38263H89.5675C92.868 4.38263 94.9156 6.21626 94.9156 9.18064C94.9156 12.634 92.8071 15.1705 89.7205 15.9956L92.3793 24.7971C92.4707 25.011 92.3485 25.1638 92.1651 25.1638ZM87.8256 13.9175C90.5456 13.887 92.3485 12.2367 92.3485 9.54737C92.3485 7.74428 91.1568 6.76635 89.1093 6.76635H84.4334C84.3112 6.76635 84.25 6.82748 84.2195 6.94972L83.0276 13.7342C82.9971 13.8564 83.058 13.9175 83.1805 13.9175H87.8256ZM106.736 25.1638H105.055C104.872 25.1638 104.78 25.0416 104.81 24.8582L105.024 23.5441H104.994C104.169 24.6748 102.671 25.5 100.471 25.5C98.0869 25.5 96.4367 24.0636 96.4367 21.8021C96.4367 18.4099 98.7594 16.6374 102.793 16.6374H106.002C106.124 16.6374 106.186 16.5763 106.216 16.4541L106.43 15.2622C106.797 13.1841 106.216 12.3284 103.619 12.3284C101.938 12.3284 100.807 12.8479 100.012 13.4591C99.8292 13.5814 99.6762 13.5814 99.5845 13.4286L99.0345 12.0533C98.9733 11.9005 99.0037 11.7477 99.1262 11.6561C100.318 10.7698 102.152 10.1891 104.169 10.1891C108.05 10.1891 109.425 11.5949 108.783 15.1399L107.072 24.8582C107.041 25.0416 106.919 25.1638 106.736 25.1638ZM101.418 23.4524C103.619 23.4524 105.208 22.3217 105.513 20.4575L105.819 18.7461C105.849 18.6239 105.788 18.5627 105.666 18.5627H102.854C99.9818 18.5627 98.8511 19.6323 98.8511 21.466C98.8511 22.6884 99.6762 23.4524 101.418 23.4524ZM116.883 25.3166H115.783C113.063 25.3166 112.207 24.0636 112.727 21.191L114.316 12.6645C114.347 12.5423 114.286 12.4812 114.163 12.4812H112.941C112.758 12.4812 112.666 12.3589 112.696 12.1756L112.941 10.8309C112.972 10.617 113.094 10.5253 113.277 10.5253H114.53C114.652 10.5253 114.714 10.4642 114.744 10.3419L115.477 6.21626C115.508 6.03289 115.63 5.91065 115.813 5.91065H117.647C117.831 5.91065 117.922 6.03289 117.892 6.21626L117.158 10.3419C117.128 10.4642 117.189 10.5253 117.281 10.5253H119.573C119.756 10.5253 119.848 10.6475 119.817 10.8309L119.573 12.1756C119.542 12.3589 119.42 12.4812 119.236 12.4812H116.945C116.853 12.4812 116.792 12.5423 116.761 12.6645L115.172 21.0687C114.897 22.6578 115.263 23.0551 116.639 23.0551H117.25C117.433 23.0551 117.525 23.1774 117.494 23.3608L117.219 25.011C117.189 25.1944 117.067 25.3166 116.883 25.3166ZM126.166 25.5C122.835 25.5 121.093 23.6052 121.093 20.3658C121.093 18.4711 121.521 15.7817 122.377 14.0398C123.538 11.5949 125.586 10.1891 128.55 10.1891C131.362 10.1891 133.44 11.9005 133.44 15.1705C133.44 15.9345 133.348 16.7597 133.073 18.2571C133.042 18.4405 132.89 18.5627 132.706 18.5627H123.752C123.63 18.5627 123.569 18.6239 123.538 18.7461C123.446 19.2351 123.446 19.5712 123.446 19.9991C123.446 22.23 124.485 23.2691 126.564 23.2691C128.153 23.2691 129.558 22.505 130.536 21.5271C130.72 21.3743 130.873 21.4049 130.995 21.4966L131.942 22.5662C132.064 22.6884 132.064 22.8718 131.912 23.0246C130.536 24.4304 128.55 25.5 126.166 25.5ZM124.119 16.6374H130.72C130.842 16.6374 130.934 16.5763 130.964 16.4541C131.056 16.0262 131.086 15.5678 131.086 15.2316C131.086 13.2758 130.078 12.3284 128.245 12.3284C126.655 12.3284 125.311 13.1229 124.577 14.651C124.333 15.1399 124.119 15.8428 123.996 16.4541C123.966 16.5763 123.996 16.6374 124.119 16.6374ZM142.221 25.1638H140.266C140.113 25.1638 139.99 25.0416 140.021 24.8582L143.199 6.94972C143.23 6.82748 143.169 6.76635 143.047 6.76635H137.546C137.362 6.76635 137.27 6.64411 137.301 6.46074L137.607 4.68824C137.637 4.50487 137.759 4.38263 137.943 4.38263H151.817C152.001 4.38263 152.123 4.50487 152.092 4.68824L151.787 6.46074C151.756 6.64411 151.603 6.76635 151.42 6.76635H145.919C145.827 6.76635 145.766 6.82748 145.736 6.94972L142.557 24.8582C142.527 25.0416 142.405 25.1638 142.221 25.1638ZM162.473 25.1638H160.639C160.486 25.1638 160.364 25.0416 160.395 24.8582L161.923 16.2707C162.351 13.7953 161.556 12.3895 159.447 12.3895C157.583 12.3895 155.902 13.887 155.505 16.0873L153.947 24.8582C153.916 25.0416 153.824 25.1638 153.641 25.1638H151.777C151.624 25.1638 151.502 25.0416 151.532 24.8582L155.108 4.68824C155.138 4.50487 155.261 4.38263 155.444 4.38263H157.278C157.461 4.38263 157.553 4.50487 157.522 4.68824L156.177 12.2061H156.208C157.125 11.0143 158.622 10.1891 160.517 10.1891C163.604 10.1891 165.04 12.3284 164.459 15.69L162.809 24.8582C162.778 25.0416 162.656 25.1638 162.473 25.1638ZM172.664 25.5C169.333 25.5 167.591 23.6052 167.591 20.3658C167.591 18.4711 168.018 15.7817 168.874 14.0398C170.036 11.5949 172.083 10.1891 175.047 10.1891C177.859 10.1891 179.937 11.9005 179.937 15.1705C179.937 15.9345 179.846 16.7597 179.57 18.2571C179.54 18.4405 179.387 18.5627 179.204 18.5627H170.249C170.127 18.5627 170.066 18.6239 170.036 18.7461C169.944 19.2351 169.944 19.5712 169.944 19.9991C169.944 22.23 170.983 23.2691 173.061 23.2691C174.65 23.2691 176.056 22.505 177.034 21.5271C177.217 21.3743 177.37 21.4049 177.492 21.4966L178.44 22.5662C178.562 22.6884 178.562 22.8718 178.409 23.0246C177.034 24.4304 175.047 25.5 172.664 25.5ZM170.616 16.6374H177.217C177.339 16.6374 177.431 16.5763 177.462 16.4541C177.553 16.0262 177.584 15.5678 177.584 15.2316C177.584 13.2758 176.576 12.3284 174.742 12.3284C173.153 12.3284 171.808 13.1229 171.075 14.651C170.83 15.1399 170.616 15.8428 170.494 16.4541C170.463 16.5763 170.494 16.6374 170.616 16.6374ZM184.624 25.1638H182.668C182.484 25.1638 182.393 25.0416 182.423 24.8582L185.968 4.68824C185.999 4.50487 186.121 4.38263 186.304 4.38263H193.364C196.787 4.38263 198.743 6.24682 198.743 9.24176C198.743 14.1009 195.595 16.6985 191.225 16.6985H186.61C186.488 16.6985 186.396 16.7597 186.396 16.8819L184.96 24.8582C184.929 25.0416 184.807 25.1638 184.624 25.1638ZM191.439 14.3148C194.25 14.3148 196.206 12.5728 196.206 9.63906C196.206 7.83596 195.014 6.76635 192.844 6.76635H188.352C188.23 6.76635 188.169 6.82748 188.138 6.94972L186.855 14.1315C186.824 14.2537 186.885 14.3148 187.007 14.3148H191.439ZM201.81 25.1638H199.976C199.793 25.1638 199.67 25.0416 199.701 24.8582L202.176 10.8309C202.207 10.6475 202.329 10.5253 202.513 10.5253H204.377C204.56 10.5253 204.652 10.6475 204.621 10.8309L204.316 12.3895H204.346C205.171 11.0754 206.608 10.1891 208.38 10.1891C209.542 10.1891 210.519 10.617 211.1 11.2893C211.192 11.4116 211.222 11.5644 211.1 11.7172L209.847 13.0618C209.725 13.2146 209.572 13.2146 209.419 13.1229C208.869 12.6951 208.227 12.3895 207.372 12.3895C205.233 12.3895 204.01 14.2843 203.552 16.8208L202.115 24.8582C202.085 25.0416 201.993 25.1638 201.81 25.1638ZM216.801 25.5C213.623 25.5 211.82 23.6052 211.82 20.4575C211.82 18.5016 212.462 15.4456 213.226 13.9175C214.509 11.3199 216.618 10.1891 219.43 10.1891C222.577 10.1891 224.411 12.0839 224.411 15.2011C224.411 17.1875 223.739 20.213 222.974 21.7716C221.722 24.3692 219.582 25.5 216.801 25.5ZM217.137 23.2691C218.757 23.2691 219.98 22.4439 220.774 20.8853C221.324 19.724 221.905 17.0041 221.905 15.5984C221.905 13.5814 221.11 12.3895 219.063 12.3895C217.443 12.3895 216.251 13.2146 215.457 14.8038C214.876 15.9345 214.295 18.685 214.295 20.0602C214.295 22.1078 215.12 23.2691 217.137 23.2691ZM229.397 25.1638H227.532C227.379 25.1638 227.257 25.0416 227.288 24.8582L229.458 12.6645C229.488 12.5423 229.427 12.4812 229.336 12.4812H228.082C227.899 12.4812 227.838 12.3589 227.868 12.1756L228.082 10.8309C228.113 10.617 228.235 10.5253 228.419 10.5253H229.672C229.763 10.5253 229.855 10.4642 229.886 10.3419L230.099 8.99728C230.711 5.60504 232.208 4.38263 235.173 4.38263H236.242C236.426 4.38263 236.517 4.50487 236.486 4.68824L236.212 6.30794C236.181 6.52187 236.028 6.61355 235.875 6.61355H235.111C233.369 6.61355 232.88 7.01084 232.544 8.90559L232.269 10.3419C232.239 10.4642 232.269 10.5253 232.391 10.5253H235.142C235.325 10.5253 235.447 10.6475 235.417 10.8309L235.173 12.1756C235.142 12.3589 235.02 12.4812 234.806 12.4812H232.086C231.994 12.4812 231.933 12.5423 231.903 12.6645L229.702 24.8582C229.672 25.0416 229.549 25.1638 229.397 25.1638Z" fill="black"/>
</svg>
